<svg width="1920" height="993" viewBox="0 0 1920 993" fill="none" xmlns="http://www.w3.org/2000/svg">
<g id="undraw_programming_2svr 1">
<g clip-path="url(#clip0)">
<path id="Vector" opacity="0.1" d="M1772.79 785.213C1770.65 789.693 1768.52 794.113 1766.39 798.473C1763.07 805.247 1759.8 811.888 1756.56 818.399C1755.13 821.284 1753.69 824.115 1752.29 826.946C1736.43 858.429 1721.62 886.275 1709.05 909.175C1697.64 929.925 1680.7 947.31 1660 959.511C1639.3 971.711 1615.6 978.277 1591.39 978.52L1311.78 981.477H1308.83L1284.86 981.728L1264.36 981.943L1201.48 982.606H1198.94L1166.93 982.946H1165.95L968.665 985.025L792.562 986.817L772.078 987.032L644.855 988.376H644.707L562.196 989.236H561.311L300.412 991.977L222.363 992.802C205.707 992.984 189.122 990.676 173.189 985.957C145.462 977.817 120.543 962.484 101.114 941.608C67.5934 905.717 43.1629 863.841 26.7529 818.399C24.3806 811.841 22.168 805.199 20.1152 798.473C-36.6927 611.85 32.561 371.077 157.203 209.952C162.427 203.214 167.737 196.644 173.133 190.241L173.262 190.098C211.595 144.37 254.575 106.167 300.356 79.0021C381.484 30.7829 471.37 17.2006 559.781 57.6789C634.585 91.9394 704.428 108.048 772.133 112.42C778.974 112.851 785.814 113.173 792.618 113.37C947.922 118.119 1093.47 63.7354 1264.39 28.6327C1271.2 27.235 1278.02 25.8553 1284.9 24.5472C1406.83 0.966241 1542.09 -11.4693 1702.95 14.674C1719.66 17.3272 1736.15 21.16 1752.29 26.142C1759.38 28.3639 1766.21 30.7531 1772.79 33.3095C1849.57 63.6637 1891.44 119.749 1909.23 190.026C1910.92 196.549 1912.37 203.185 1913.6 209.934C1945.15 378.979 1852.76 618.767 1772.79 785.213Z" fill="#0072FF"/>
<g id="Group" opacity="0.1">
<path id="Vector_2" opacity="0.1" d="M300.357 79.0035V992.176L222.308 993C205.653 993.183 189.067 990.874 173.134 986.155V190.099H173.263C211.596 144.317 254.575 106.114 300.357 79.0035Z" fill="#0072FF"/>
<path id="Vector_3" opacity="0.1" d="M1913.69 209.953H157.203C162.427 203.216 167.737 196.646 173.134 190.243V190.099H1909.32C1911.01 196.586 1912.46 203.204 1913.69 209.953Z" fill="#0072FF"/>
<path id="Vector_4" opacity="0.1" d="M1772.79 33.3287V798.457H1766.39C1763.07 805.23 1759.8 811.872 1756.56 818.382C1755.13 821.267 1753.69 824.098 1752.29 826.93V26.0896C1759.38 28.3115 1766.21 30.7246 1772.79 33.3287Z" fill="#0072FF"/>
<path id="Vector_5" opacity="0.1" d="M1284.9 24.4948V981.801L1264.4 982.016V28.5803C1271.2 27.1826 1278.02 25.8029 1284.9 24.4948Z" fill="#0072FF"/>
<path id="Vector_6" opacity="0.1" d="M792.618 113.318V986.997L772.134 987.212V112.368C778.974 112.798 785.815 113.049 792.618 113.318Z" fill="#0072FF"/>
<path id="Vector_7" opacity="0.1" d="M1766.39 798.475C1763.07 805.248 1759.8 811.89 1756.56 818.4H26.7534C24.3811 811.842 22.1685 805.2 20.1157 798.475H1766.39Z" fill="#0072FF"/>
</g>
<path id="Vector_8" d="M425.184 476.332H390.151V579.652H425.184V476.332Z" fill="#3F3D56"/>
<path id="Vector_9" d="M1367.98 470.957H1332.95V580.261H1367.98V470.957Z" fill="#3F3D56"/>
<path id="Vector_10" d="M1591.4 956.231V979.525L1311.28 982.034L1308.3 982.088L1201.83 983.037L1199.29 983.073L1166.93 983.342H1165.97L968.721 985.116L644.929 988.037H644.652L562.326 988.789L561.441 988.807L195.628 992.068V965.19L281.642 915.018L454.223 913.62L457.911 913.602L459.128 913.584L462.815 913.531L545.676 912.868L549.382 912.85L550.563 912.832L554.25 912.814L580.82 912.599L581.52 912.581L647.068 912.043H647.602L1159.08 907.85L1171.6 907.761H1172.85L1182.4 907.671L1251.82 907.116L1255.51 907.062L1258.92 907.026H1260.69L1282.28 906.865L1286.56 906.811L1292.29 906.775L1310.27 906.614L1338.79 906.381L1342.48 906.345L1348.9 906.309H1350.1L1487.85 905.163L1591.4 956.231Z" fill="#65617D"/>
<path id="Vector_11" opacity="0.2" d="M1591.4 956.231V979.525L1311.28 982.034L1308.3 982.088L1201.83 983.037L1199.29 983.073L1166.93 983.342H1165.97L968.721 985.116L644.929 988.037H644.652L562.326 988.789L561.441 988.807L195.628 992.068V965.19L281.642 915.018L454.223 913.62L457.911 913.602L459.128 913.584L462.815 913.531L545.676 912.868L549.382 912.85L550.563 912.832L554.25 912.814L580.82 912.599L581.52 912.581L647.068 912.043H647.602L1159.08 907.85L1171.6 907.761H1172.85L1182.4 907.671L1251.82 907.116L1255.51 907.062L1258.92 907.026H1260.69L1282.28 906.865L1286.56 906.811L1292.29 906.775L1310.27 906.614L1338.79 906.381L1342.48 906.345L1348.9 906.309H1350.1L1487.85 905.163L1591.4 956.231Z" fill="black"/>
<path id="Vector_12" d="M545.953 866.655V910.538C545.954 912.617 545.348 914.653 544.206 916.41C543.064 918.167 541.432 919.573 539.5 920.465C538.061 921.143 536.489 921.51 534.89 921.54L470.541 922.866C468.823 922.906 467.118 922.557 465.563 921.845C463.597 920.969 461.931 919.563 460.764 917.793C459.597 916.024 458.978 913.966 458.98 911.864V866.655H545.953Z" fill="#3F3D56"/>
<path id="Vector_13" opacity="0.1" d="M545.953 866.655V910.538C545.954 912.617 545.348 914.653 544.206 916.41C543.064 918.167 541.432 919.573 539.5 920.465C538.061 921.143 536.489 921.51 534.89 921.54L470.541 922.866C468.823 922.906 467.118 922.557 465.563 921.845C463.597 920.969 461.931 919.563 460.764 917.793C459.597 916.024 458.978 913.966 458.98 911.864V866.655H545.953Z" fill="black"/>
<path id="Vector_14" d="M549.641 866.655V910.538C549.642 912.617 549.036 914.653 547.894 916.41C546.752 918.167 545.12 919.573 543.188 920.465C541.749 921.143 540.177 921.51 538.578 921.54L474.229 922.866C472.51 922.906 470.806 922.557 469.251 921.845C467.285 920.969 465.619 919.563 464.452 917.793C463.285 916.024 462.666 913.966 462.668 911.864V866.655H549.641Z" fill="#3F3D56"/>
<path id="Vector_15" d="M1342.48 866.655H1255.51V923.099H1342.48V866.655Z" fill="#3F3D56"/>
<path id="Vector_16" opacity="0.1" d="M1342.48 866.655H1255.51V923.099H1342.48V866.655Z" fill="black"/>
<path id="Vector_17" d="M1338.79 866.655H1251.82V923.099H1338.79V866.655Z" fill="#3F3D56"/>
<path id="Vector_18" opacity="0.1" d="M425.184 476.315V486.582L390.151 485.704V476.315H425.184Z" fill="black"/>
<path id="Vector_19" d="M655.771 187.071L613.676 480.938C613.409 482.815 612.44 484.53 610.954 485.757C609.467 486.983 607.568 487.634 605.619 487.585L268.57 479.092L262.172 478.931C261.058 478.905 259.962 478.651 258.955 478.187C257.949 477.722 257.055 477.056 256.331 476.232C255.607 475.409 255.07 474.447 254.755 473.408C254.44 472.369 254.353 471.278 254.501 470.204L301.758 162.576C302.063 160.671 303.092 158.946 304.642 157.741C306.191 156.537 308.15 155.941 310.129 156.072L648.395 178.327C649.487 178.388 650.553 178.669 651.527 179.151C652.501 179.633 653.362 180.306 654.055 181.128C654.748 181.95 655.258 182.902 655.554 183.925C655.849 184.948 655.923 186.019 655.771 187.071V187.071Z" fill="#65617D"/>
<path id="Vector_20" d="M324.382 177.682L288.741 448.845L598.502 458.396L636.595 196.783L324.382 177.682Z" fill="#0072FF"/>
<path id="Vector_21" d="M1076.68 173.489H718.958C713.531 173.489 709.131 177.765 709.131 183.039V474.523C709.131 479.797 713.531 484.073 718.958 484.073H1076.68C1082.1 484.073 1086.5 479.797 1086.5 474.523V183.039C1086.5 177.765 1082.1 173.489 1076.68 173.489Z" fill="#65617D"/>
<path id="Vector_22" d="M1069.89 194.4H726.942V453.02H1069.89V194.4Z" fill="#0072FF"/>
<path id="Vector_23" opacity="0.1" d="M1367.98 470.939V477.73L1332.95 478.429V470.939H1367.98Z" fill="black"/>
<path id="Vector_24" d="M1526.05 465.205C1526.1 465.947 1526 466.692 1525.74 467.394C1525.49 468.096 1525.09 468.741 1524.57 469.29C1524.06 469.839 1523.43 470.281 1522.74 470.589C1522.04 470.897 1521.28 471.065 1520.52 471.082L1175.36 478.017C1173.92 478.046 1172.53 477.546 1171.46 476.619C1170.39 475.692 1169.72 474.405 1169.59 473.018L1139.92 173.274C1139.85 172.53 1139.93 171.78 1140.16 171.068C1140.4 170.356 1140.78 169.698 1141.28 169.134C1141.78 168.569 1142.4 168.11 1143.09 167.783C1143.78 167.457 1144.54 167.271 1145.3 167.235L1487.85 150.678L1491.53 150.499C1493 150.424 1494.44 150.905 1495.55 151.841C1496.65 152.777 1497.34 154.095 1497.47 155.516L1526.05 465.205Z" fill="#65617D"/>
<path id="Vector_25" d="M1159.63 184.849L1472.47 169.905L1498.89 442.269L1188.52 449.437L1159.63 184.849Z" fill="#0072FF"/>
<path id="Vector_26" opacity="0.1" d="M1526.05 465.205C1526.1 465.947 1526 466.692 1525.74 467.394C1525.49 468.096 1525.09 468.741 1524.57 469.29C1524.06 469.839 1523.43 470.281 1522.74 470.589C1522.04 470.897 1521.28 471.065 1520.52 471.082L1487.85 150.678L1491.53 150.499C1493 150.424 1494.44 150.905 1495.55 151.841C1496.65 152.777 1497.34 154.095 1497.47 155.516L1526.05 465.205Z" fill="black"/>
<path id="Vector_27" opacity="0.1" d="M310.185 156.054L268.57 479.092L262.172 478.931C261.058 478.905 259.962 478.651 258.955 478.187C257.949 477.722 257.055 477.056 256.331 476.232C255.607 475.409 255.07 474.446 254.755 473.408C254.44 472.369 254.353 471.278 254.501 470.204L301.758 162.576C302.059 160.658 303.094 158.92 304.657 157.711C306.219 156.502 308.193 155.91 310.185 156.054V156.054Z" fill="black"/>
<path id="Vector_28" opacity="0.1" d="M425.184 549.047H390.151V579.652H425.184V549.047Z" fill="black"/>
<path id="Vector_29" opacity="0.1" d="M549.641 866.637V875.543L462.668 877.801V866.637H549.641Z" fill="black"/>
<path id="Vector_30" d="M703.138 559.708V861.101C703.116 862.94 702.367 864.701 701.045 866.019C699.724 867.336 697.932 868.11 696.04 868.178L342.673 877.317H342.581C340.657 877.294 338.818 876.541 337.457 875.218C336.097 873.896 335.322 872.109 335.298 870.239V559.708C335.322 557.838 336.097 556.051 337.457 554.729C338.818 553.407 340.657 552.654 342.581 552.63H695.855C697.78 552.654 699.618 553.407 700.979 554.729C702.34 556.051 703.115 557.838 703.138 559.708V559.708Z" fill="#65617D"/>
<path id="Vector_31" opacity="0.1" d="M342.673 552.63V877.317H342.581C340.657 877.294 338.818 876.541 337.457 875.218C336.097 873.896 335.322 872.109 335.298 870.239V559.708C335.322 557.838 336.097 556.051 337.457 554.729C338.818 553.407 340.657 552.654 342.581 552.63H342.673Z" fill="black"/>
<path id="Vector_32" d="M358.806 571.875H686.083V837.52L358.806 844.687V571.875Z" fill="#D4DFEC"/>
<path id="Vector_33" opacity="0.1" d="M1367.98 549.047H1332.95V580.261H1367.98V549.047Z" fill="black"/>
<path id="Vector_34" opacity="0.1" d="M1338.79 866.637V878.123L1251.82 875.866V866.637H1338.79Z" fill="black"/>
<path id="Vector_35" d="M1453.57 559.708V870.239C1453.55 872.124 1452.76 873.925 1451.38 875.249C1450 876.574 1448.14 877.317 1446.2 877.317V877.317L1092.75 868.178C1090.86 868.11 1089.07 867.336 1087.75 866.019C1086.43 864.701 1085.68 862.94 1085.66 861.101V559.708C1085.68 557.838 1086.45 556.051 1087.82 554.729C1089.18 553.407 1091.01 552.654 1092.94 552.63H1446.21C1448.15 552.635 1450.01 553.38 1451.38 554.704C1452.76 556.028 1453.55 557.826 1453.57 559.708V559.708Z" fill="#65617D"/>
<path id="Vector_36" opacity="0.1" d="M1453.57 559.708V870.239C1453.55 872.124 1452.76 873.925 1451.38 875.249C1450 876.574 1448.14 877.317 1446.2 877.317V877.317V552.63C1448.14 552.63 1450 553.373 1451.38 554.698C1452.76 556.023 1453.55 557.823 1453.57 559.708Z" fill="black"/>
<path id="Vector_37" d="M1430.06 571.875H1102.78V837.52L1430.06 844.687V571.875Z" fill="#D4DFEC"/>
<path id="Vector_38" d="M1076.51 559.708V861.101C1076.49 862.94 1075.74 864.701 1074.42 866.019C1073.1 867.336 1071.3 868.11 1069.41 868.178L716.045 877.317C714.105 877.317 712.243 876.574 710.862 875.249C709.482 873.925 708.694 872.124 708.67 870.239V559.708C708.694 557.838 709.469 556.051 710.83 554.729C712.19 553.407 714.029 552.654 715.953 552.63H1069.23C1071.15 552.654 1072.99 553.407 1074.35 554.729C1075.71 556.051 1076.49 557.838 1076.51 559.708V559.708Z" fill="#65617D"/>
<path id="Vector_39" d="M732.178 571.875H1059.46V837.52L732.178 844.687V571.875Z" fill="#D4DFEC"/>
<path id="Vector_40" opacity="0.1" d="M1591.4 956.231V979.525L1311.28 982.034L1308.3 982.088L1201.83 983.037L1199.29 983.073L1166.93 983.342H1165.97L968.721 985.116L644.929 988.037H644.652L562.326 988.789L561.441 988.807L195.628 992.068V965.19L569.019 962.807H569.904L645.482 962.305H645.832L1167.78 958.955H1168.31L1168.63 958.937H1169.49L1178.33 958.883H1181.02L1318.36 957.987L1326.48 957.951L1328.28 957.933L1591.4 956.231Z" fill="black"/>
<path id="Vector_41" d="M898.417 579.652C950.687 579.652 993.06 538.472 993.06 487.675C993.06 436.878 950.687 395.698 898.417 395.698C846.147 395.698 803.774 436.878 803.774 487.675C803.774 538.472 846.147 579.652 898.417 579.652Z" fill="#FBBEBE"/>
<path id="Vector_42" d="M993.078 675.821C993.078 675.821 809.619 697.324 827.135 675.821C833.478 668.045 835.229 645.001 834.879 618.75C834.768 610.776 834.473 602.516 834.049 594.291C832.021 554.87 827.135 516.345 827.135 516.345C827.135 516.345 987.547 442.878 969.109 501.114C961.733 524.641 964.149 557.683 969.754 588.701C971.395 597.75 973.294 606.619 975.285 615.041C980.145 635.583 986.084 655.87 993.078 675.821V675.821Z" fill="#FBBEBE"/>
<path id="Vector_43" opacity="0.1" d="M993.078 675.821C993.078 675.821 809.619 697.324 827.135 675.821C833.478 668.045 835.229 645.001 834.879 618.75C862.85 607.139 898.435 615.794 898.435 615.794C935.902 608.537 959.926 609.952 975.285 615.041C980.145 635.583 986.084 655.87 993.078 675.821V675.821Z" fill="black"/>
<path id="back" d="M644.855 990.061V988.556L968.666 985.134L1165.95 983.342H1166.51L1166.3 985.994L1166.58 983.342H1166.93V983.037L1169.46 958.937L1170.42 949.816L1170.71 946.967L1170.97 944.584L1182.36 907.653L1193.76 870.777L1203.35 839.724L1217.99 792.275C1217.99 792.275 1209.69 773.46 1205.08 768.085C1200.47 762.709 1195.86 725.976 1195.86 725.976C1195.86 725.976 1156.51 689.547 1139.31 685.354C1132.1 683.562 1117.87 681.179 1102.75 678.187C1097.09 677.076 1091.28 675.893 1085.69 674.603C1082.54 673.904 1079.44 673.169 1076.47 672.435C1070.7 671.032 1065 669.321 1059.42 667.31C1056.49 666.276 1053.7 664.898 1051.12 663.207C1037.57 653.548 1003.61 652.455 1002.3 652.455C1002.29 652.414 1002.29 652.372 1002.3 652.33V652.169C1002.34 651.417 1002.34 650.663 1002.3 649.911C1002.3 649.194 1002.3 648.352 1002.13 647.402C1002.13 647.116 1002.13 646.811 1002 646.506C1001.91 645.861 1001.8 645.18 1001.63 644.464C1001.58 644.143 1001.5 643.826 1001.41 643.514C1000.88 641.355 1000.11 639.258 999.107 637.26C998.978 636.974 998.812 636.669 998.665 636.382C997.761 634.727 996.712 633.15 995.53 631.67C995.291 631.365 995.033 631.042 994.756 630.738C993.246 629.007 991.566 627.423 989.741 626.007C989.243 625.631 988.727 625.237 988.192 624.879C987.894 624.643 987.58 624.428 987.252 624.233L985.611 623.194L984.08 622.334C982.734 621.617 981.315 620.918 979.766 620.255C979.286 620.04 978.77 619.843 978.254 619.646C977.738 619.449 976.926 619.144 976.244 618.894H976.134L974.751 618.356C973.7 618.016 972.63 617.711 971.506 617.406L969.791 616.976L967.947 616.564L966.103 616.188C964.259 615.83 962.286 615.507 960.221 615.256L958.119 615.005L955.962 614.79L953.731 614.611L950.56 614.432L946.872 614.306C930.608 614.305 914.39 615.981 898.491 619.306C887.445 616.917 876.131 615.906 864.822 616.295H863.218L861.375 616.403H860.194L857.816 616.618C857.023 616.618 856.212 616.779 855.419 616.887C854.626 616.994 853.796 617.084 853.004 617.209L851.787 617.406C850.588 617.603 849.371 617.819 848.099 618.069C847.693 618.141 847.288 618.231 846.882 618.338C845.278 618.679 843.674 619.091 842.088 619.557C841.295 619.772 840.503 620.023 839.71 620.291C839.304 620.399 838.917 620.542 838.53 620.686L837.35 621.098L836.188 621.546L834.805 622.083C834.104 622.37 833.422 622.675 832.74 622.997C832.353 623.158 831.966 623.338 831.597 623.535C831.228 623.732 830.841 623.893 830.491 624.09C826.322 626.184 822.469 628.824 819.041 631.938L818.1 632.816L817.178 633.73C816.865 634.035 816.57 634.357 816.275 634.68C815.073 635.957 813.953 637.303 812.919 638.712C812.624 639.088 812.348 639.464 812.071 639.859C810.901 641.536 809.842 643.283 808.9 645.091C808.66 645.521 808.439 645.969 808.217 646.399C806.713 649.426 805.479 652.573 804.53 655.806C804.186 657.001 803.872 658.195 803.589 659.39C803.589 659.39 764.556 676.126 732.178 688.239C723.568 691.464 715.455 694.385 708.67 696.589C706.697 697.234 704.853 697.825 703.138 698.381C699.418 699.688 695.549 700.554 691.615 700.961C689.76 700.991 687.911 701.159 686.083 701.463C671.204 703.81 645.704 714.006 642.919 724.238C642.693 725.055 642.631 725.906 642.735 726.746C642.735 726.746 642.735 726.872 642.735 726.943C644.579 739.486 631.672 737.695 631.672 737.695C631.672 737.695 627.063 770.844 620.609 779.803C615.944 786.254 612.755 800.643 612.349 811.502C612.117 814.885 612.39 818.283 613.16 821.59C613.16 821.679 613.16 821.769 613.16 821.841C613.898 824.242 612.128 830.8 609.122 839.204C605.859 848.432 601.102 859.9 596.529 870.723C589.633 887.065 583.143 901.901 582.737 905.163C582.571 906.614 582.092 909.212 581.428 912.563C578.736 926.217 572.762 952.217 569.812 962.735C567.618 970.584 564.428 981.335 562.234 988.717C562.234 988.932 562.105 989.147 562.05 989.345L644.708 988.556V990.061H644.966H644.855Z" fill="#0072FF"/>
<path id="Vector_44" opacity="0.1" d="M675.02 778.854C675.02 778.854 780.118 831.714 817.916 825.442L675.02 778.854Z" fill="black"/>
<path id="Vector_45" opacity="0.1" d="M888.903 757.351C888.903 757.351 991.234 789.605 1025.34 794.085C1059.46 798.564 888.903 757.351 888.903 757.351Z" fill="black"/>
<path id="Vector_46" opacity="0.1" d="M1002.41 653.566C948.937 663.135 848.265 661.074 804.751 659.623C820.7 604.075 898.472 622.961 898.472 622.961C994.738 604.29 1002.11 643.03 1002.41 653.566Z" fill="black"/>
<path id="collar" d="M1002.41 649.983C948.937 659.551 848.265 657.49 804.751 656.039C820.7 600.491 898.472 619.377 898.472 619.377C994.738 600.706 1002.11 639.446 1002.41 649.983Z" fill="#0072FF"/>
<path id="hand" d="M1286.24 894.877C1286.24 894.877 1349.23 885.47 1350.46 912.348C1351.7 939.226 1318.34 958.005 1318.34 958.005L1286.24 894.877Z" fill="#FBBEBE"/>
<path id="Vector_47" opacity="0.1" d="M969.754 588.701C967.045 589.877 964.275 590.918 961.457 591.818C941.58 598.484 921.538 605.204 900.611 607.641C879.683 610.078 857.724 607.927 839.47 597.785C837.553 596.733 835.706 595.566 833.938 594.291C831.91 554.87 827.024 516.345 827.024 516.345C827.024 516.345 987.436 442.878 968.998 501.114C961.659 524.641 964.148 557.683 969.754 588.701Z" fill="black"/>
<path id="head" d="M872.456 343.913C869.824 344.589 867.067 344.657 864.403 344.113C861.74 343.568 859.244 342.426 857.115 340.778L860.951 345.956C858.69 346.21 856.401 345.98 854.241 345.284C852.082 344.587 850.105 343.441 848.449 341.924C848.102 346.56 848.3 351.219 849.039 355.811C842.694 356.109 836.446 354.204 831.413 350.436C831.314 352.052 831.728 353.659 832.599 355.04C833.469 356.421 834.754 357.509 836.28 358.159C829.906 357.419 823.472 358.958 818.179 362.489C812.886 366.02 809.097 371.302 807.517 377.35L817.142 378.21C809.577 379.78 802.789 383.805 797.892 389.624C794.942 393.208 792.693 397.795 793.983 402.167C795.274 406.539 801.506 409.335 804.899 406.217C800.073 411.814 796.565 418.37 794.622 425.425C792.679 432.479 792.348 439.861 793.651 447.053C794.526 450.118 794.814 453.313 794.499 456.479C793.891 459.435 791.973 461.998 791.015 464.883C789.171 470.115 790.922 475.795 792.563 481.009L801.211 508.64C804.345 518.621 807.461 528.619 811.555 538.277C814.453 544.384 816.917 550.676 818.93 557.11C821.253 565.783 821.345 575.28 826.305 582.859C829.704 587.629 834.248 591.522 839.544 594.202C857.779 604.344 879.813 606.494 900.685 604.057C921.557 601.62 941.58 594.901 961.438 588.235C965.85 586.943 970.084 585.138 974.05 582.859C987.786 574.115 990.847 556.232 993.41 540.481C996.268 522.921 1000.08 505.397 1006.85 488.876C1010.87 479.038 1016.07 469.058 1015.19 458.521C1014.06 444.527 1002.67 433.184 999.845 419.423C998.901 414.823 998.944 410.083 999.974 405.5C1000.85 402.77 1001.34 399.937 1001.43 397.078C1001.12 391.308 996.249 386.865 991.677 383.155C981.757 375.104 971.518 367.494 960.959 360.327C960.424 356.743 965.439 355.202 967.707 352.371C970.915 348.375 967.597 342.032 962.729 340.168C957.861 338.305 952.404 339.523 947.333 340.76C947.663 338.237 947.147 335.679 945.861 333.465C944.575 331.25 942.588 329.499 940.196 328.47C937.803 327.441 935.133 327.191 932.582 327.755C930.031 328.32 927.735 329.669 926.037 331.603C924.69 328.603 922.539 326.008 919.808 324.092C917.077 322.175 913.867 321.007 910.512 320.709C898.288 319.777 898.048 328.862 890.23 333.861C882.412 338.86 875.959 332.266 869.948 327.464C868.844 330.179 868.494 333.128 868.934 336.015C869.375 338.903 870.589 341.627 872.456 343.913V343.913Z" fill="#3F3D56"/>
<path id="Vector_48" d="M1332.95 948.633C1332.95 948.633 1331.31 952.432 1328.28 957.933C1323.71 966.396 1318.14 974.316 1311.69 981.532L1311.19 982.052H1308.2L1201.74 983.001H1199.2L1198.88 982.643L1178.23 958.829L1170.45 949.852L1170.14 949.475L1169.48 948.723L1169.11 948.293L1168.63 947.737L1153.49 930.285L1159.02 907.886L1168.44 870.149L1168.68 869.236L1170.53 862.068L1171.84 856.692L1176.22 839.168L1191.27 778.872L1218 792.311L1246.2 840.691L1261.33 866.673H1269.63C1271.2 866.673 1274.79 869.612 1278.41 872.998C1279.7 874.199 1280.99 875.471 1282.1 876.582C1285.38 879.879 1287.98 882.71 1287.98 882.71C1287.98 882.71 1301.42 882.997 1305.03 893.282C1305.22 893.78 1305.37 894.289 1305.49 894.806C1306.69 898.848 1308.25 902.782 1310.16 906.56C1312.54 911.595 1315.52 917.311 1318.55 923.027C1324.17 933.51 1329.89 943.491 1331.99 947.11L1332.25 947.558L1332.95 948.633Z" fill="#0072FF"/>
<path id="Vector_49" opacity="0.1" d="M1174.56 867.73L1174.38 870.293V870.472L1174.07 874.593L1171.61 907.761L1168.65 947.719L1167.8 958.972L1165.95 983.055V983.36L968.666 985.152L644.911 988.556V990.061H644.653V988.556V988.054L645.482 962.323L647.068 912.043L648.432 869.415L648.561 865.168C648.642 862.605 649.26 860.085 650.376 857.761C651.493 855.438 653.085 853.36 655.055 851.654C657.026 849.949 659.334 848.651 661.838 847.842C664.341 847.032 666.989 846.727 669.618 846.945C678.321 847.662 689.623 848.54 703.138 849.471L708.67 849.866C786.718 855.134 930.96 861.943 1076.51 853.449C1079.57 853.288 1082.65 853.109 1085.73 852.894C1108.3 851.514 1130.85 849.74 1153.18 847.518C1156 847.231 1158.85 847.548 1161.54 848.448C1164.22 849.348 1166.66 850.809 1168.7 852.728C1170.74 854.646 1172.32 856.975 1173.34 859.552C1174.35 862.129 1174.77 864.89 1174.56 867.641V867.73Z" fill="black"/>
<path id="Vector_50" d="M644.855 990.061V988.556L968.666 985.134L1165.95 983.342H1166.51V983.037L1168.35 958.954L1169.14 948.203L1172.17 907.689L1174.55 875.615V874.826C1174.66 873.348 1174.59 871.863 1174.34 870.4C1174.35 870.341 1174.35 870.28 1174.34 870.221C1173.84 867.197 1172.57 864.341 1170.66 861.907C1168.63 859.377 1165.97 857.391 1162.93 856.137C1159.89 854.883 1156.57 854.402 1153.29 854.739C1130.96 856.961 1108.41 858.735 1085.84 860.115C1082.76 860.33 1079.68 860.509 1076.62 860.67C931.071 869.074 786.829 862.265 708.781 857.087L703.249 856.693C689.734 855.761 678.431 854.901 669.729 854.166C664.941 853.773 660.173 855.118 656.346 857.941C652.519 860.764 649.903 864.864 649.004 869.451C648.818 870.421 648.707 871.403 648.672 872.389L647.418 912.097L645.704 962.395L644.892 988.126V988.628V990.133L644.855 990.061Z" fill="#3F3D56"/>
<path id="chair" opacity="0.1" d="M1175.12 880.291L1172.85 907.761L1169.48 948.705L1168.63 958.955L1166.78 981.908L1166.67 983.055V983.36L1166.4 986.012L1166.6 983.36H1166.06L968.777 985.152L644.911 988.556V988.054L645.814 962.323L647.658 912.043L648.838 878.625C648.896 876.724 649.443 874.867 650.428 873.224C651.414 871.581 652.807 870.204 654.48 869.218C656.568 867.974 659.009 867.409 661.45 867.605C665.322 867.91 670.079 868.268 675.629 868.662C684.645 869.307 695.763 870.06 708.707 870.848C732.676 872.318 762.749 873.895 797.21 875.185C893.088 878.768 1022.52 879.969 1145.47 869.504C1151 869.038 1156.72 868.519 1162.3 867.999C1164.51 867.785 1166.74 868.196 1168.72 869.182C1169.28 869.453 1169.81 869.777 1170.31 870.15C1171.91 871.28 1173.18 872.8 1173.99 874.557C1174.18 874.907 1174.34 875.273 1174.45 875.651C1175.01 877.135 1175.23 878.716 1175.12 880.291V880.291Z" fill="black"/>
<path id="Vector_51" opacity="0.1" d="M549.641 904.822V910.538C549.642 912.617 549.036 914.653 547.894 916.41C546.752 918.167 545.12 919.573 543.188 920.465L469.251 921.845C467.285 920.969 465.619 919.563 464.452 917.793C463.285 916.024 462.666 913.966 462.668 911.864V906.489L549.641 904.822Z" fill="black"/>
<path id="Vector_52" d="M550.563 923.834L454.224 925.626V910.09L550.563 908.298V923.834Z" fill="#3F3D56"/>
<path id="Vector_53" opacity="0.1" d="M550.563 923.834L454.224 925.626V910.09L550.563 908.298V923.834Z" fill="black"/>
<path id="Vector_54" d="M554.25 923.834L457.911 925.626V910.09L554.25 908.298V923.834Z" fill="#3F3D56"/>
<g id="Group_2" opacity="0.1">
<path id="Vector_55" opacity="0.1" d="M873.212 338.036C871.41 335.761 870.213 333.09 869.727 330.259C869.282 333.027 869.548 335.858 870.501 338.502C871.416 338.42 872.323 338.264 873.212 338.036Z" fill="black"/>
<path id="Vector_56" opacity="0.1" d="M849.795 349.934C849.448 347.737 849.22 345.524 849.113 343.304C849.113 345.508 849.113 347.73 849.113 349.952L849.795 349.934Z" fill="black"/>
<path id="Vector_57" opacity="0.1" d="M1000.07 409.729C1000.17 408.132 1000.39 406.545 1000.73 404.98C1001.6 402.255 1002.1 399.429 1002.2 396.576C1002.16 395.936 1002.06 395.301 1001.91 394.677C1001.6 396.326 1001.1 397.974 1000.73 399.605C999.993 402.929 999.769 406.341 1000.07 409.729Z" fill="black"/>
<path id="Vector_58" opacity="0.1" d="M961.715 354.36L963.724 355.776C965.419 354.585 967.004 353.254 968.463 351.798C969.157 350.865 969.587 349.772 969.71 348.627C969.833 347.483 969.644 346.327 969.164 345.275C968.98 345.684 968.745 346.069 968.463 346.422C966.195 349.253 961.18 350.812 961.715 354.36Z" fill="black"/>
<path id="Vector_59" opacity="0.1" d="M810.209 371.598C809.536 372.905 808.999 374.273 808.604 375.683C811.489 374.119 814.595 372.977 817.824 372.297L810.209 371.598Z" fill="black"/>
<path id="Vector_60" opacity="0.1" d="M835.635 352.102C834.423 351.454 833.265 350.717 832.168 349.898C832.122 350.607 832.178 351.319 832.334 352.013C833.435 351.962 834.538 351.992 835.635 352.102V352.102Z" fill="black"/>
<path id="Vector_61" opacity="0.1" d="M1015.9 457.679C1015.15 466.37 1010.98 474.738 1007.61 482.98C1000.84 499.501 997.024 517.026 994.166 534.604C991.603 550.355 988.634 568.237 974.806 576.964C970.855 579.258 966.624 581.064 962.213 582.339C942.336 589.023 922.294 595.725 901.367 598.162C880.439 600.599 858.48 598.466 840.226 588.324C834.933 585.641 830.39 581.748 826.987 576.982C822.064 569.402 821.972 559.905 819.612 551.233C817.6 544.793 815.135 538.495 812.237 532.382C808.162 522.742 805.027 512.672 801.911 502.763C799.023 493.552 796.14 484.336 793.264 475.114C792.317 472.34 791.613 469.493 791.162 466.603C790.443 471.19 791.844 475.992 793.264 480.49C796.14 489.724 799.023 498.94 801.911 508.138C805.027 518.119 808.162 528.118 812.237 537.758C815.135 543.87 817.6 550.168 819.612 556.608C821.935 565.281 822.027 574.778 826.987 582.357C830.39 587.124 834.933 591.016 840.226 593.7C858.48 603.842 880.495 605.974 901.367 603.537C922.239 601.1 942.262 594.399 962.213 587.715C966.624 586.439 970.855 584.634 974.806 582.339C988.542 573.613 991.603 555.73 994.166 539.98C997.024 522.402 1000.84 504.877 1007.61 488.356C1011.63 478.537 1016.83 468.556 1015.94 458.002C1015.94 457.894 1015.9 457.787 1015.9 457.679Z" fill="black"/>
<path id="Vector_62" opacity="0.1" d="M795.218 450.745C795.218 450.745 795.218 450.619 795.218 450.548C795.551 447.388 795.263 444.196 794.37 441.14C794.002 439.174 793.762 437.187 793.651 435.191C793.439 438.98 793.68 442.781 794.37 446.516C794.665 447.913 794.997 449.329 795.218 450.745Z" fill="black"/>
<path id="Vector_63" opacity="0.1" d="M800.842 406.916C802.26 404.6 803.869 402.401 805.654 400.339C802.28 403.475 796.048 400.68 794.739 396.326C794.256 398.087 794.256 399.94 794.739 401.701C795.193 403.016 795.996 404.191 797.068 405.107C798.14 406.022 799.442 406.646 800.842 406.916V406.916Z" fill="black"/>
</g>
<path id="Vector_64" opacity="0.1" d="M1261.35 866.655C1261.35 866.655 1267.2 887.262 1261.35 905.181C1255.51 923.099 1261.35 866.655 1261.35 866.655Z" fill="black"/>
<path id="Vector_65" opacity="0.1" d="M1286.24 887.674C1286.24 887.674 1288.7 913.835 1283.17 918.476C1277.63 923.117 1286.24 887.674 1286.24 887.674Z" fill="black"/>
<path id="Vector_66" d="M366.901 614.36L554.251 612.568" stroke="#0072FF" stroke-width="2" stroke-miterlimit="10"/>
<path id="Vector_67" d="M366.901 636.705L554.251 634.931" stroke="#0072FF" stroke-width="2" stroke-miterlimit="10"/>
<path id="Vector_68" d="M366.901 659.067L554.251 657.275" stroke="#0072FF" stroke-width="2" stroke-miterlimit="10"/>
</g>
</g>
<defs>
<clipPath id="clip0">
<rect width="1920" height="993" fill="white"/>
</clipPath>
</defs>
</svg>
