<svg width="306" height="300" viewBox="0 0 306 300" fill="none" xmlns="http://www.w3.org/2000/svg">
<path fill-rule="evenodd" clip-rule="evenodd" d="M140.187 0C217.557 0 280.373 67.2129 280.373 150C280.373 232.787 217.557 300 140.187 300C62.816 300 0 232.787 0 150C0 67.2129 62.816 0 140.187 0ZM140.187 89.0315C171.635 89.0315 197.166 116.35 197.166 150C197.166 183.65 171.635 210.969 140.187 210.969C108.739 210.969 83.2069 183.65 83.2069 150C83.2069 116.35 108.739 89.0315 140.187 89.0315Z" fill="#F1526D"/>
<path fill-rule="evenodd" clip-rule="evenodd" d="M170.579 5C244.855 5 305.159 69.9723 305.159 150C305.159 230.027 244.855 294.999 170.579 294.999C96.3025 294.999 36 230.027 36 150C36 69.9723 96.3025 5 170.579 5ZM170.579 64.8403C214.203 64.8403 249.619 102.998 249.619 150C249.619 197.001 214.203 235.16 170.579 235.16C126.956 235.16 91.5397 197.001 91.5397 150C91.5397 102.998 126.956 64.8403 170.579 64.8403Z" fill="white"/>
</svg>
