<svg width="300" height="332" viewBox="0 0 300 332" fill="none" xmlns="http://www.w3.org/2000/svg">
<g id="Me">
<g clip-path="url(#clip0)">
<g id="SVG of Me">
<g id="Background">
<path id="ellipse2" d="M150 366.252C232.843 366.252 300 296.846 300 211.23C300 125.613 232.843 56.2073 150 56.2073C67.1573 56.2073 0 125.613 0 211.23C0 296.846 67.1573 366.252 150 366.252Z" fill="#F1526D"/>
<g id="g27">
<g id="Body">
<path id="ellipse7" d="M146.827 432C195.228 432 234.464 389.3 234.464 336.627C234.464 283.954 195.228 241.255 146.827 241.255C98.4262 241.255 59.1897 283.954 59.1897 336.627C59.1897 389.3 98.4262 432 146.827 432Z" fill="#706C61"/>
<g id="g18">
<g id="Right String">
<path id="rect12" d="M173.455 272.136L168.797 272.187L169.603 343.306L174.261 343.255L173.455 272.136Z" fill="#F2EAEA"/>
</g>
<g id="Left String">
<path id="rect15" d="M125.064 272.739H120.358V343.859H125.064V272.739Z" fill="#F2EAEA"/>
</g>
</g>
</g>
<g id="Colar Shadow">
<path id="ellipse21" d="M149.37 287.398C175.097 287.398 195.953 276.839 195.953 263.813C195.953 250.787 175.097 240.228 149.37 240.228C123.643 240.228 102.787 250.787 102.787 263.813C102.787 276.839 123.643 287.398 149.37 287.398Z" fill="#595959" fill-opacity="0.77"/>
</g>
<g id="Collar">
<path id="ellipse24" d="M149.829 279.431C180.591 279.431 205.529 268.382 205.529 254.751C205.529 241.121 180.591 230.072 149.829 230.072C119.066 230.072 94.1284 241.121 94.1284 254.751C94.1284 268.382 119.066 279.431 149.829 279.431Z" fill="#706C61"/>
</g>
</g>
</g>
<g id="Whole Head">
<g id="Neck">
<path id="path30" fill-rule="evenodd" clip-rule="evenodd" d="M172.397 228.899C172.397 221.069 166.246 214.711 158.669 214.711H137.875C130.3 214.711 124.148 221.069 124.148 228.899V257.541C124.148 265.37 130.3 271.727 137.875 271.727H158.669C166.246 271.727 172.397 265.37 172.397 257.541V228.899Z" fill="#C68665"/>
</g>
<g id="Neck Shadow">
<path id="rect33" d="M172.432 232.424H124.198V242.214H172.432V232.424Z" fill="#675E7A" fill-opacity="0.37"/>
</g>
<g id="Head">
<path id="path36" fill-rule="evenodd" clip-rule="evenodd" d="M230.097 121.042C230.097 78.3834 196.587 43.7504 155.31 43.7504H145.838C104.561 43.7504 71.0497 78.3834 71.0497 121.042V152.485C71.0497 195.144 104.561 229.777 145.838 229.777H155.31C196.587 229.777 230.097 195.144 230.097 152.485V121.042Z" fill="#C68665"/>
</g>
<path id="Left Ear" fill-rule="evenodd" clip-rule="evenodd" d="M75.8116 112.02C75.8116 107.132 71.9707 103.162 67.2402 103.162C62.5096 103.162 58.6687 107.132 58.6687 112.02V146.897C58.6687 151.787 62.5096 155.756 67.2402 155.756C71.9707 155.756 75.8116 151.787 75.8116 146.897V112.02Z" fill="#C68665"/>
<g id="Right Ear">
<path id="path40" fill-rule="evenodd" clip-rule="evenodd" d="M238.669 109.57C238.669 105.496 235.468 102.188 231.526 102.188C227.584 102.188 224.383 105.496 224.383 109.57V143.504C224.383 147.578 227.584 150.886 231.526 150.886C235.468 150.886 238.669 147.578 238.669 143.504V109.57Z" fill="#C68665"/>
</g>
<g id="Right Eyebrow">
<path id="path43" fill-rule="evenodd" clip-rule="evenodd" d="M196.147 104.359C196.666 101.316 190.294 97.6848 181.915 96.2478C173.536 94.8106 166.324 96.1119 165.806 99.1547L196.147 104.359Z" fill="#1B1817"/>
</g>
<g id="Left Eyebrow">
<path id="path46" fill-rule="evenodd" clip-rule="evenodd" d="M129.814 98.6841C129.292 95.6418 122.079 94.348 113.702 95.794C105.324 97.2401 98.956 100.878 99.4774 103.921L129.814 98.6841Z" fill="#1B1817"/>
</g>
<g id="Left Eye">
<path id="path49" fill-rule="evenodd" clip-rule="evenodd" d="M130.019 118.632C130.027 114.907 124.629 111.872 117.972 111.858C111.315 111.845 105.904 114.857 105.896 118.582C107.91 116.724 112.626 115.222 117.964 115.233C123.303 115.244 128.013 116.765 130.019 118.632Z" fill="#1B1817"/>
</g>
<g id="Right Eye">
<path id="path52" fill-rule="evenodd" clip-rule="evenodd" d="M189.766 118.599C189.774 114.874 184.376 111.839 177.719 111.825C171.062 111.811 165.651 114.824 165.643 118.549C167.657 116.691 172.373 115.189 177.712 115.2C183.051 115.21 187.76 116.732 189.766 118.599Z" fill="#1B1817"/>
</g>
<g id="Mouth">
<path id="Inside Mouth" fill-rule="evenodd" clip-rule="evenodd" d="M178.165 168.279C178.789 169.786 179.105 171.336 179.105 172.89C179.105 183.334 165.126 191.813 147.907 191.813C130.688 191.813 116.708 183.334 116.708 172.89C116.708 171.336 117.024 169.786 117.649 168.279H178.165Z" fill="#43342C"/>
<path id="Teeth" fill-rule="evenodd" clip-rule="evenodd" d="M172.115 164.06C172.115 161.788 170.254 159.943 167.96 159.943H128.571C126.277 159.943 124.415 161.788 124.415 164.06V172.295C124.415 174.568 126.277 176.413 128.571 176.413H167.96C170.254 176.413 172.115 174.568 172.115 172.295V164.06Z" fill="#F4E9E4"/>
<path id="Tongue" fill-rule="evenodd" clip-rule="evenodd" d="M148.5 185.544C152.605 183.68 160.816 183.68 164.921 184.612C169.026 185.544 169.026 187.408 164.921 189.272C162.047 190.67 154.658 192.068 148.5 193C142.342 192.068 134.953 190.67 132.079 189.272C127.974 187.408 127.974 185.544 132.079 184.612C136.184 183.68 144.395 183.68 148.5 185.544Z" fill="#C43C3C"/>
</g>
<g id="Nose">
<path id="path55" fill-rule="evenodd" clip-rule="evenodd" d="M164.16 137.791C164.16 144.665 156.879 150.239 147.898 150.239C138.917 150.239 131.636 144.665 131.636 137.791H164.16Z" fill="#0C0908" fill-opacity="0.4"/>
</g>
<g id="Beard">
<g id="Mustache">
<path id="path73" fill-rule="evenodd" clip-rule="evenodd" d="M107.086 175.224C107.209 160.185 125.67 148.115 148.284 148.289C170.9 148.463 189.16 160.815 189.037 175.854C179.514 171.269 164.474 167.49 148.128 167.365C131.783 167.239 116.685 170.786 107.086 175.224V175.224Z" fill="#373434"/>
</g>
<g id="Bear">
<path id="path76" fill-rule="evenodd" clip-rule="evenodd" d="M78.296 185.656C78.599 214.936 111.393 238.389 151.483 237.999C191.572 237.609 223.875 213.521 223.572 184.241C206.714 193.19 180.074 200.582 151.099 200.864C122.123 201.146 95.3349 194.275 78.296 185.656V185.656Z" fill="#373434"/>
</g>
<g id="Left Side Burn">
<path id="path79" fill-rule="evenodd" clip-rule="evenodd" d="M75.2627 150.365C67.9644 153.091 66.5062 167.677 72.0088 182.917C77.511 198.157 87.9035 208.317 95.2018 205.591C90.6857 199.966 85.2413 190.475 81.2648 179.461C77.2878 168.445 75.3992 157.626 75.2627 150.365Z" fill="#373434"/>
</g>
<g id="Right Side Burn">
<path id="path82" fill-rule="evenodd" clip-rule="evenodd" d="M226.396 146.381C233.694 149.107 235.152 163.692 229.65 178.933C224.148 194.173 213.755 204.333 206.457 201.607C210.973 195.982 216.417 186.49 220.394 175.477C224.371 164.461 226.259 153.642 226.396 146.381Z" fill="#373434"/>
</g>
<g id="Left Cheek  Beard">
<path id="path85" fill-rule="evenodd" clip-rule="evenodd" d="M115.091 205.356L88.2061 211.856L73.5464 151.139L75.7445 150.607L115.091 205.356Z" fill="#373434"/>
</g>
<g id="Right Cheek  Beard">
<path id="path88" fill-rule="evenodd" clip-rule="evenodd" d="M186.539 201.372L213.423 207.873L228.083 147.155L225.885 146.623L186.539 201.372Z" fill="#373434"/>
</g>
<g id="Left Goatee Handle Bar">
<path id="path91" fill-rule="evenodd" clip-rule="evenodd" d="M116.361 173.393C116.361 170.782 114.311 168.663 111.784 168.663C109.258 168.663 107.207 170.782 107.207 173.393V199.038C107.207 201.649 109.258 203.769 111.784 203.769C114.311 203.769 116.361 201.649 116.361 199.038V173.393Z" fill="#373434"/>
</g>
<g id="Left Goatee Handle Bar1">
<path id="path94" fill-rule="evenodd" clip-rule="evenodd" d="M188.839 173.928C188.839 171.534 186.958 169.59 184.64 169.59C182.323 169.59 180.442 171.534 180.442 173.928V199.263C180.442 201.659 182.323 203.603 184.64 203.603C186.958 203.603 188.839 201.659 188.839 199.263V173.928Z" fill="#373434"/>
</g>
</g>
<g id="Hair">
<g id="g100">
<path id="path98" fill-rule="evenodd" clip-rule="evenodd" d="M137.458 8.47849C137.458 3.79917 141.847 0 147.253 0C152.658 0 157.047 3.79917 157.047 8.47849C159.75 4.42619 165.745 3.03552 170.427 5.37518C175.108 7.71485 176.715 12.9036 174.012 16.9559C178.693 14.6163 184.688 16.0069 187.391 20.0592C190.094 24.1115 188.488 29.3014 183.806 31.641C189.212 31.641 193.601 35.4391 193.601 40.1185C193.601 44.7978 189.212 48.597 183.806 48.597C188.488 50.9366 190.094 56.1254 187.391 60.1777C184.688 64.23 178.693 65.6207 174.012 63.281C176.715 67.3333 175.108 72.5231 170.427 74.8628C165.745 77.2025 159.75 75.8118 157.047 71.7595C157.047 76.4388 152.658 80.2369 147.253 80.2369C141.847 80.2369 137.458 76.4388 137.458 71.7595C134.755 75.8118 128.76 77.2025 124.079 74.8628C119.397 72.5231 117.791 67.3333 120.494 63.281C115.812 65.6207 109.817 64.23 107.114 60.1777C104.411 56.1254 106.018 50.9366 110.699 48.597C105.294 48.597 100.905 44.7978 100.905 40.1185C100.905 35.4391 105.294 31.641 110.699 31.641C106.018 29.3014 104.411 24.1115 107.114 20.0592C109.817 16.0069 115.812 14.6163 120.494 16.9559C117.791 12.9036 119.397 7.71485 124.079 5.37518C128.76 3.03552 134.755 4.42619 137.458 8.47849V8.47849Z" fill="#373434"/>
</g>
<g id="g104">
<path id="path102" fill-rule="evenodd" clip-rule="evenodd" d="M215.95 35.9154C218.222 32.8073 223.388 32.8647 227.478 36.043C231.567 39.2214 233.042 44.3246 230.769 47.4326C234.782 46.3302 239.993 48.9315 242.399 53.2386C244.804 57.5448 243.499 61.937 239.486 63.0394C244.164 64.2375 248.024 68.686 248.101 72.9668C248.177 77.2476 244.443 79.7496 239.764 78.5505C243.853 81.7289 245.329 86.833 243.056 89.941C240.783 93.0491 235.618 92.9918 231.528 89.8134C233.934 94.1205 232.629 98.5109 228.616 99.6133C224.603 100.716 219.392 98.1144 216.987 93.8083C217.064 98.0891 213.327 100.591 208.65 99.3928C203.971 98.1937 200.111 93.7452 200.034 89.4644C197.762 92.5724 192.598 92.5152 188.508 89.3369C184.418 86.1585 182.942 81.0552 185.215 77.9471C181.202 79.0496 175.991 76.4482 173.585 72.1412C171.18 67.835 172.486 63.4438 176.499 62.3413C171.82 61.1423 167.96 56.6937 167.883 52.4129C167.807 48.1321 171.541 45.6302 176.22 46.8292C172.131 43.6508 170.655 38.5468 172.928 35.4387C175.201 32.3307 180.366 32.388 184.456 35.5663C182.05 31.2593 183.355 26.8688 187.368 25.7664C191.381 24.664 196.592 27.2654 198.998 31.5725C198.921 27.2916 202.657 24.7889 207.334 25.987C212.013 27.186 215.873 31.6345 215.95 35.9154Z" fill="#373434"/>
</g>
<g id="g108">
<path id="path106" fill-rule="evenodd" clip-rule="evenodd" d="M69.7074 46.7189C67.4947 43.5585 69.0684 38.489 73.2201 35.4046C77.3718 32.3201 82.5389 32.3815 84.7516 35.5419C84.911 31.2624 88.8575 26.9028 93.5596 25.8125C98.2609 24.721 101.949 27.3102 101.79 31.5897C104.279 27.3378 109.541 24.8558 113.532 26.0514C117.525 27.2465 118.745 31.6675 116.257 35.9194C120.408 32.8355 125.575 32.8969 127.788 36.0573C130 39.2177 128.426 44.2877 124.275 47.3716C128.977 46.2813 132.664 48.8699 132.505 53.1494C132.346 57.4284 128.399 61.7885 123.697 62.88C127.69 64.0751 128.91 68.4966 126.42 72.7474C123.932 76.9993 118.67 79.4807 114.678 78.2856C116.891 81.446 115.316 86.516 111.165 89.6005C107.013 92.685 101.846 92.623 99.6337 89.4626C99.4744 93.7421 95.5271 98.1023 90.825 99.1926C86.1237 100.284 82.4367 97.6955 82.5953 93.4166C80.1059 97.6673 74.8445 100.149 70.8522 98.9536C66.8599 97.7585 65.64 93.337 68.1286 89.0851C63.9769 92.1696 58.8097 92.1082 56.597 88.9478C54.3843 85.7874 55.9588 80.7173 60.1105 77.6329C55.4084 78.7232 51.7206 76.1352 51.88 71.8556C52.0394 67.5761 55.9858 63.2166 60.6879 62.1262C56.6964 60.9306 55.4749 56.5085 57.9643 52.2577C60.4528 48.0058 65.7151 45.5238 69.7074 46.7189V46.7189Z" fill="#373434"/>
</g>
</g>
</g>
</g>
</g>
</g>
<defs>
<clipPath id="clip0">
<rect width="300" height="332" fill="white"/>
</clipPath>
</defs>
</svg>
